<?xml version="1.0" encoding="UTF-8"?>
<svg width="25px" height="25px" viewBox="0 0 25 25" version="1.1" xmlns="http://www.w3.org/2000/svg" xmlns:xlink="http://www.w3.org/1999/xlink">
    <!-- Generator: Sketch 52.5 (67469) - http://www.bohemiancoding.com/sketch -->
    <title>book-with-bookmark</title>
    <desc>Created with Sketch.</desc>
    <g stroke="none" stroke-width="1" fill="none" fill-rule="evenodd">
        <g transform="translate(-59.000000, -204.000000)" fill-rule="nonzero">
            <g transform="translate(59.000000, 204.000000)">
                <rect fill="#00B894" x="0" y="0" width="25" height="25"></rect>
                <path d="M12.6326928,6.53027942 L12.6118585,10.7949002 L11.1853027,9.69240316 L9.78546049,10.7949002 L9.73799278,6.53027942 L8.96722558,6.53027942 C8.70508628,6.53027942 8.49178037,6.30921683 8.49178037,6.03769791 C8.49178037,5.76609606 8.70508628,5.54511639 8.96722558,5.54511639 L17.4778068,5.54511639 C17.8890081,5.54511639 18.223717,5.19855559 18.223717,4.77251674 C18.223717,4.34647788 17.8890481,4 17.4778068,4 L8.96718555,4 C7.88244359,4 7,4.91414273 7,6.03765645 L7,17.6934012 C7,18.9713105 8.00376657,20.0109515 9.23753047,20.0109515 L17.223717,20.0109515 C17.7760017,20.0109515 18.223717,19.5632362 18.223717,19.0109515 L18.223717,6.53027942 L12.6326928,6.53027942 Z" fill="#FFFFFF"></path>
            </g>
        </g>
    </g>
</svg>