<?xml version="1.0" encoding="UTF-8"?>
<svg width="21px" height="21px" viewBox="0 0 21 21" version="1.1" xmlns="http://www.w3.org/2000/svg" xmlns:xlink="http://www.w3.org/1999/xlink">
    <!-- Generator: Sketch 51.2 (57519) - http://www.bohemiancoding.com/sketch -->
    <title>r:4</title>
    <desc>Created with Sketch.</desc>
    <defs></defs>
    <g stroke="none" stroke-width="1" fill="none" fill-rule="evenodd">
        <g transform="translate(-624.000000, -159.000000)">
            <g transform="translate(60.000000, 155.000000)">
                <g transform="translate(515.000000, 0.000000)">
                    <g transform="translate(49.000000, 4.000000)">
                        <circle fill="#FCFCFC" cx="10.5" cy="10.5" r="10.5"></circle>
                        <path d="M10.0435155,10.5014644 L5.81829368,14.7562047 C5.70090984,14.8744086 5.70090984,15.065908 5.81829368,15.1841119 C5.87691103,15.2432889 5.95387426,15.2727273 6.03068834,15.2727273 C6.10765158,15.2727273 6.18446566,15.2432889 6.243083,15.1841119 L10.5000746,10.8973799 L14.7570661,15.1841119 C14.8158326,15.2432889 14.8926467,15.2727273 14.9694608,15.2727273 C15.0462749,15.2727273 15.1232381,15.2432889 15.1818555,15.1841119 C15.2992393,15.065908 15.2992393,14.8744086 15.1818555,14.7562047 L10.9567828,10.5014644 L15.1846894,6.24372022 C15.3020732,6.1255163 15.3020732,5.93401694 15.1846894,5.81581302 C15.0673055,5.6977593 14.8771348,5.6977593 14.7599001,5.81581302 L10.5002237,10.1055489 L6.24009993,5.81596321 C6.12271609,5.69790949 5.93269446,5.69790949 5.81531061,5.81596321 C5.69792677,5.93416713 5.69792677,6.12566649 5.81531061,6.24387041 L10.0435155,10.5014644 Z" fill="#4A90E2" fill-rule="nonzero"></path>
                    </g>
                </g>
            </g>
        </g>
    </g>
</svg>