<?xml version="1.0" encoding="UTF-8"?>
<svg width="25px" height="25px" viewBox="0 0 25 25" version="1.1" xmlns="http://www.w3.org/2000/svg" xmlns:xlink="http://www.w3.org/1999/xlink">
    <!-- Generator: Sketch 53.2 (72643) - https://sketchapp.com -->
    <title>delete</title>
    <desc>Created with Sketch.</desc>
    <g id="Page-2" stroke="none" stroke-width="1" fill="none" fill-rule="evenodd">
        <g id="Artboard-Copy" transform="translate(-174.000000, -23.000000)" fill-rule="nonzero">
            <g id="delete" transform="translate(174.000000, 23.000000)">
                <rect id="Rectangle-Copy-4" fill="#FFFFFF" x="0" y="0" width="25" height="25" rx="12.5"></rect>
                <g id="dustbin" transform="translate(7.000000, 6.000000)" fill="#E02020">
                    <path d="M9.57693107,3.5529781 C9.57693107,3.43171508 9.67164716,3.33333333 9.78843771,3.33333333 C9.90522826,3.33333333 10,3.43215807 10,3.5529781 L10,11.9789087 C10,12.3509026 9.85278752,12.6895377 9.61657233,12.9352416 C9.38037569,13.1805026 9.0537851,13.3333333 8.69551118,13.3333333 L2.13782215,13.3333333 C1.77952968,13.3333333 1.45253099,13.1805026 1.21674245,12.9352416 C0.980527264,12.6899806 0.833333333,12.3514034 0.833333333,11.9789087 L0.833333333,3.5529781 C0.833333333,3.43171508 0.928086528,3.33333333 1.04485852,3.33333333 C1.16164907,3.33333333 1.25640227,3.43215807 1.25640227,3.5529781 L1.25640227,11.9789087 C1.25640227,12.2296781 1.35601555,12.4589145 1.5155452,12.6245341 C1.67507486,12.7901921 1.89587503,12.8940438 2.13737695,12.8940438 L8.69510308,12.8940438 C8.93660501,12.8940438 9.15692288,12.7901536 9.31648963,12.6245341 C9.47646449,12.458433 9.57604067,12.2296396 9.57604067,11.9793516 L9.57604067,3.5529781 L9.57693107,3.5529781 Z" id="Path"></path>
                    <path d="M3.75,12.2779151 C3.75,12.4005361 3.65668479,12.5 3.54166667,12.5 C3.42664854,12.5 3.33333333,12.4005361 3.33333333,12.2779151 L3.33333333,4.38877099 C3.33333333,4.26615009 3.42664854,4.16666667 3.54166667,4.16666667 C3.65668479,4.16666667 3.75,4.26615009 3.75,4.38877099 L3.75,12.2779151 Z" id="Path"></path>
                    <path d="M5.41666667,12.2779151 C5.41666667,12.4005361 5.32336563,12.5 5.20834247,12.5 C5.0933193,12.5 5,12.4005361 5,12.2779151 L5,4.38877099 C5,4.26615009 5.0933193,4.16666667 5.20834247,4.16666667 C5.32336563,4.16666667 5.41666667,4.26615009 5.41666667,4.38877099 L5.41666667,12.2779151 Z" id="Path"></path>
                    <path d="M7.08333333,12.2779151 C7.08333333,12.4005361 6.99004648,12.5 6.87501827,12.5 C6.75997179,12.5 6.66666667,12.4005361 6.66666667,12.2779151 L6.66666667,4.38877099 C6.66666667,4.26615009 6.75997179,4.16666667 6.87501827,4.16666667 C6.99004648,4.16666667 7.08333333,4.26615009 7.08333333,4.38877099 L7.08333333,12.2779151 L7.08333333,12.2779151 Z" id="Path"></path>
                    <path d="M3.74826437,1.43410378 C3.74826437,1.56249873 3.65533379,1.66666667 3.54078976,1.66666667 C3.42626391,1.66666667 3.33333333,1.56249873 3.33333333,1.43410378 C3.33333333,1.03923224 3.4772593,0.680721589 3.70894899,0.421035888 C3.94062049,0.161329793 4.26047416,0 4.61272982,0 L6.22062171,0 C6.57245893,0 6.8923126,0.161819227 7.12394771,0.421504929 C7.35561921,0.681190631 7.5,1.04068015 7.5,1.43410378 C7.5,1.56249873 7.40708761,1.66666667 7.29254358,1.66666667 C7.17799954,1.66666667 7.08508715,1.56249873 7.08508715,1.43410378 C7.08508715,1.16860605 6.98740816,0.925867013 6.83092893,0.750486375 C6.6744315,0.575085345 6.45791489,0.465105371 6.22105835,0.465105371 L4.61318464,0.465105371 C4.37589146,0.465105371 4.1597751,0.574595911 4.00287743,0.749996941 C3.84594337,0.925867013 3.74826437,1.16811662 3.74826437,1.43410378 Z" id="Path"></path>
                    <path d="M0.7233386,1.66666667 L10.1099947,1.66666667 C10.3080574,1.66666667 10.4888965,1.76016902 10.6201181,1.91134305 L10.6209501,1.91232192 C10.7521717,2.06347555 10.8333333,2.27181144 10.8333333,2.5000102 L10.8333333,3.10079084 C10.8333333,3.22916539 10.7429138,3.33333333 10.6314648,3.33333333 L10.625995,3.33333333 L0.201868522,3.33333333 C0.0904195377,3.33333333 0,3.22916539 0,3.10079084 L0,3.09497881 L0,2.5000102 C0,2.27230087 0.081161625,2.06347555 0.212383245,1.91232192 L0.213232919,1.91134305 C0.344436837,1.76018941 0.525683049,1.66666667 0.7233386,1.66666667 L0.7233386,1.66666667 Z M10.1100124,2.13179243 L0.7233386,2.13179243 C0.635450385,2.13179243 0.555120733,2.17298649 0.497927012,2.23934563 L0.497077337,2.24032449 C0.439458779,2.3061942 0.403719342,2.39826903 0.403719342,2.5000102 L0.403719342,2.86822796 L10.4291892,2.86822796 L10.4291892,2.5000102 C10.4291892,2.39875847 10.393432,2.30621459 10.3358489,2.24032449 L10.3349815,2.23934563 C10.2778232,2.17298649 10.1979007,2.13179243 10.1100124,2.13179243 Z" id="Shape"></path>
                </g>
            </g>
        </g>
    </g>
</svg>