<?xml version="1.0" encoding="UTF-8"?>
<svg width="18px" height="18px" viewBox="0 0 18 18" version="1.1" xmlns="http://www.w3.org/2000/svg" xmlns:xlink="http://www.w3.org/1999/xlink">
    <!-- Generator: Sketch 51.2 (57519) - http://www.bohemiancoding.com/sketch -->
    <title>iocImages</title>
    <desc>Created with Sketch.</desc>
    <defs></defs>
    <g stroke="none" stroke-width="1" fill="none" fill-rule="evenodd">
        <g transform="translate(-403.000000, -626.000000)">
            <g transform="translate(397.000000, 527.000000)">
                <g transform="translate(3.000000, 95.000000)">
                    <g transform="translate(0.000000, 1.000000)">
                        <g>
                            <polygon points="0 0 24 0 24 24 0 24"></polygon>
                            <path d="M21,19 L21,5 C21,3.9 20.1,3 19,3 L5,3 C3.9,3 3,3.9 3,5 L3,19 C3,20.1 3.9,21 5,21 L19,21 C20.1,21 21,20.1 21,19 Z M8.5,13.5 L11,16.51 L14.5,12 L19,18 L5,18 L8.5,13.5 Z" fill="#4A90E2" fill-rule="nonzero"></path>
                        </g>
                    </g>
                </g>
            </g>
        </g>
    </g>
</svg>