<?xml version="1.0" encoding="UTF-8"?>
<svg width="28px" height="28px" viewBox="0 0 28 28" version="1.1" xmlns="http://www.w3.org/2000/svg" xmlns:xlink="http://www.w3.org/1999/xlink">
    <!-- Generator: Sketch 51.2 (57519) - http://www.bohemiancoding.com/sketch -->
    <title>Reload</title>
    <desc>Created with Sketch.</desc>
    <defs>
        <path d="M18.5792195,12.0331257 C18.9390195,12.0331257 19.2288195,12.3229257 19.2288195,12.6827258 C19.2288195,17.3419258 15.4838195,21.1317258 10.8792195,21.1317258 C6.27461954,21.1317258 2.52961954,17.3419258 2.52961954,12.6827258 C2.52961954,8.02352574 6.27461954,4.23372574 10.8792195,4.23372574 L11.2964195,4.23372574 L10.3514195,3.38112574 C10.0532195,3.11232574 10.0280195,2.65312574 10.2968195,2.35492574 C10.5656195,2.05532574 11.0248195,2.03432574 11.3230195,2.30172574 L13.7268195,4.46752574 C13.8976195,4.62152574 13.9844195,4.84832574 13.9634195,5.07792574 C13.9410195,5.30612574 13.8122195,5.51192574 13.6134195,5.63092574 L10.8400195,7.29692574 C10.7028195,7.37952574 10.5474195,7.41032574 10.3976195,7.39632574 C10.1764195,7.37532574 9.96781954,7.25352574 9.84461954,7.04772574 C9.63741954,6.70332574 9.74941954,6.25812574 10.0924195,6.05092574 L10.9562195,5.53152574 L10.8792195,5.53152574 C6.99281954,5.53152574 3.82881954,8.73892574 3.82881954,12.6827258 C3.82881954,16.6251258 6.99281954,19.8325258 10.8792195,19.8325258 C14.7656195,19.8325258 17.9296195,16.6251258 17.9296195,12.6827258 C17.9296195,12.3229257 18.2194195,12.0331257 18.5792195,12.0331257 Z M15.4824195,6.13310575 C15.1380195,6.30810575 14.7166195,6.17230575 14.5416195,5.82650575 C14.3652195,5.48210575 14.5024195,5.06070575 14.8468195,4.88570575 C15.1912195,4.71070575 15.6126195,4.84650575 15.7890195,5.19230575 C15.9640195,5.53670575 15.8268195,5.95810575 15.4824195,6.13310575 Z M17.5241817,8.05810541 C17.1797817,8.23310541 16.7583817,8.09730541 16.5819817,7.75150541 C16.4069817,7.40710541 16.5441817,6.98570541 16.8885817,6.81070541 C17.2329817,6.63570541 17.6543817,6.77150541 17.8307817,7.11730541 C18.0057817,7.46170541 17.8685817,7.88310541 17.5241817,8.05810541 Z M17.7493003,10.3188256 C17.5743003,9.97442562 17.7101003,9.55302562 18.0559003,9.37802562 C18.4003003,9.20162562 18.8217003,9.33882562 18.9967003,9.68322562 C19.1717003,10.0276256 19.0359003,10.4490256 18.6901003,10.6254256 C18.3457003,10.8004256 17.9243003,10.6632256 17.7493003,10.3188256 Z" id="path-1"></path>
    </defs>
    <g stroke="none" stroke-width="1" fill="none" fill-rule="evenodd">
        <g transform="translate(-40.000000, -1003.000000)">
            <g transform="translate(0.000000, 99.000000)">
                <g transform="translate(0.000000, 897.000000)">
                    <g>
                        <g transform="translate(40.000000, 7.000000)">
                            <g>
                                <rect fill-opacity="0.01" fill="#FFFFFF" x="0" y="0" width="28" height="28"></rect>
                                <g transform="translate(2.800000, 2.800000)">
                                    <mask id="mask-2" fill="white">
                                        <use xlink:href="#path-1"></use>
                                    </mask>
                                    <use fill="#FFFFFF" fill-rule="nonzero" transform="translate(10.879220, 11.623258) scale(-1, 1) rotate(18.000000) translate(-10.879220, -11.623258) " xlink:href="#path-1"></use>
                                </g>
                            </g>
                        </g>
                    </g>
                </g>
            </g>
        </g>
    </g>
</svg>