<?xml version="1.0" encoding="UTF-8"?>
<svg width="20px" height="20px" viewBox="0 0 20 20" version="1.1" xmlns="http://www.w3.org/2000/svg" xmlns:xlink="http://www.w3.org/1999/xlink">
    <!-- Generator: Sketch 51.2 (57519) - http://www.bohemiancoding.com/sketch -->
    <title>iocVideo</title>
    <desc>Created with Sketch.</desc>
    <defs></defs>
    <g stroke="none" stroke-width="1" fill="none" fill-rule="evenodd">
        <g transform="translate(-542.000000, -625.000000)">
            <g transform="translate(397.000000, 527.000000)">
                <g transform="translate(143.000000, 95.000000)">
                    <g transform="translate(0.000000, 1.000000)">
                        <g>
                            <polygon points="0 0 24 0 24 24 0 24"></polygon>
                            <path d="M4,6 L2,6 L2,20 C2,21.1 2.9,22 4,22 L18,22 L18,20 L4,20 L4,6 Z M20,2 L8,2 C6.9,2 6,2.9 6,4 L6,16 C6,17.1 6.9,18 8,18 L20,18 C21.1,18 22,17.1 22,16 L22,4 C22,2.9 21.1,2 20,2 Z M12,14.5 L12,5.5 L18,10 L12,14.5 Z" fill="#4A90E2" fill-rule="nonzero"></path>
                        </g>
                    </g>
                </g>
            </g>
        </g>
    </g>
</svg>