<?xml version="1.0" encoding="UTF-8"?>
<svg width="80px" height="80px" viewBox="0 0 80 80" version="1.1" xmlns="http://www.w3.org/2000/svg" xmlns:xlink="http://www.w3.org/1999/xlink">
    <!-- Generator: Sketch 51.2 (57519) - http://www.bohemiancoding.com/sketch -->
    <title>play_icon</title>
    <desc>Created with Sketch.</desc>
    <defs>
        <path d="M4,40.8 C2.8,40.8 1.6,40 0.8,39.2 C0.4,38.4 0,37.6 0,36.8 L0,4 C0,1.6 1.6,0 4,0 C4.8,0 5.6,0.4 6.4,0.8 L31.2,17.2 C33.2,18.4 33.6,20.8 32.4,22.8 C32,23.2 31.6,23.6 31.2,24 L6.4,40.4 C5.6,40.8 4.8,40.8 4,40.8 Z M4,4 L4,37.2 L28.8,20.8 L4,4 Z M5.2,2.4 L4,4 C4,4 4,4 4,4 L5.2,2.4 Z" id="path-1"></path>
    </defs>
    <g stroke="none" stroke-width="1" fill="none" fill-rule="evenodd">
        <g transform="translate(-855.000000, -257.000000)">
            <g transform="translate(855.000000, 257.000000)">
                <circle fill-opacity="0.4" fill="#000000" cx="40" cy="40" r="40"></circle>
                <g>
                    <g>
                        <rect fill-opacity="0.01" fill="#FFFFFF" x="0" y="0" width="80" height="80"></rect>
                        <g transform="translate(24.000000, 20.000000)">
                            <mask id="mask-2" fill="white">
                                <use xlink:href="#path-1"></use>
                            </mask>
                            <use fill="#1D1D1B" fill-rule="nonzero" xlink:href="#path-1"></use>
                            <g mask="url(#mask-2)" fill="#FFFFFF">
                                <g transform="translate(-24.000000, -20.000000)">
                                    <rect x="0" y="0" width="80" height="80"></rect>
                                </g>
                            </g>
                        </g>
                    </g>
                </g>
            </g>
        </g>
    </g>
</svg>