<?xml version="1.0" encoding="UTF-8"?>
<svg width="25px" height="25px" viewBox="0 0 25 25" version="1.1" xmlns="http://www.w3.org/2000/svg" xmlns:xlink="http://www.w3.org/1999/xlink">
    <!-- Generator: Sketch 60 (88103) - https://sketch.com -->
    <title>Redirect</title>
    <desc>Created with Sketch.</desc>
    <g id="Page-2" stroke="none" stroke-width="1" fill="none" fill-rule="evenodd">
        <g id="Artboard-Copy" transform="translate(-140.000000, -93.000000)" fill-rule="nonzero">
            <g id="Redirect" transform="translate(140.000000, 93.000000)">
                <rect id="Rectangle-Copy-4" fill="#0984E3" x="1.0658141e-14" y="5.32907052e-15" width="25" height="25"></rect>
                <g id="files-transit" transform="translate(5.000000, 5.000000)" fill="#FFFFFF">
                    <path d="M14.6195792,4 C14.4095658,4 14.2391583,3.82959254 14.2391583,3.61957915 L14.2391583,0.760841697 L11.3804208,0.760841697 C11.1704075,0.760841697 11,0.590434234 11,0.380420848 C11,0.170407462 11.1704075,0 11.3804208,0 L14.6195792,0 C14.8295925,0 15,0.170407462 15,0.380420848 L15,3.61957915 C15,3.82959254 14.8295925,4 14.6195792,4 Z" id="Path"></path>
                    <path d="M7.46464665,8 C7.3450974,8 7.22530594,7.95362858 7.13454539,7.86116489 C6.95402776,7.67742382 6.95523882,7.3806677 7.13769416,7.19863634 L14.2084355,0.135491604 C14.3906486,-0.0465397557 14.6851792,-0.0448300496 14.8654546,0.138666772 C15.0459722,0.322407838 15.0447612,0.619163964 14.8623058,0.801195324 L7.79159915,7.86434006 C7.70108082,7.95488469 7.58274263,8 7.46464665,8 Z" id="Path"></path>
                    <path d="M11.2631226,15 L2.73691132,15 C1.22780378,15 0,13.7721992 0,12.2630953 L0,3.73690468 C0,2.2278008 1.22780378,1 2.73691132,1 L8.2107,1 C8.46251799,1 8.66684622,1.20432774 8.66684622,1.45614512 C8.66684622,1.7079625 8.46251799,1.91229024 8.2107,1.91229024 L2.73691132,1.91229024 C1.73076037,1.91229024 0.91232642,2.73075617 0.91232642,3.73687071 L0.91232642,12.2630613 C0.91232642,13.2692099 1.73079433,14.0876418 2.73691132,14.0876418 L11.2631226,14.0876418 C12.2692736,14.0876418 13.0877075,13.2691759 13.0877075,12.2630613 L13.0877075,6.58784564 C13.0877075,6.33602826 13.2920358,6.13170052 13.5438538,6.13170052 C13.7956718,6.13170052 14,6.33602826 14,6.58784564 L14,12.2630953 C14,13.7721992 12.7721962,15 11.2631226,15 Z" id="Path"></path>
                </g>
            </g>
        </g>
    </g>
</svg>