<?xml version="1.0" encoding="UTF-8"?>
<svg width="28px" height="28px" viewBox="0 0 28 28" version="1.1" xmlns="http://www.w3.org/2000/svg" xmlns:xlink="http://www.w3.org/1999/xlink">
    <!-- Generator: Sketch 51.2 (57519) - http://www.bohemiancoding.com/sketch -->
    <title>L:7</title>
    <desc>Created with Sketch.</desc>
    <defs>
        <path d="M12.5760259,11.2068993 C11.8820856,11.2087109 11.2135412,11.4681461 10.7000259,11.9348993 L5.42202592,9.28889931 C5.62725259,8.71880661 5.62725259,8.094992 5.42202592,7.52489931 L10.7000259,4.87889931 C11.6821506,5.76528537 13.1506471,5.84331429 14.2211731,5.06599632 C15.291699,4.28867834 15.6720868,2.86815881 15.1332634,1.65988801 C14.5944399,0.4516172 13.2834607,-0.214644046 11.9898097,0.0623330806 C10.6961588,0.339310208 9.77289892,1.48393321 9.77602592,2.80689931 C9.783924,3.10685105 9.83581044,3.40401886 9.93002592,3.68889931 L4.65202592,6.33489931 C3.5263421,5.34213949 1.81808632,5.41354503 0.779179852,6.49678529 C-0.259726617,7.58002555 -0.259726617,9.28977306 0.779179852,10.3730133 C1.81808632,11.4562536 3.5263421,11.5276591 4.65202592,10.5348993 L9.93002592,13.1808993 C9.83581044,13.4657798 9.783924,13.7629476 9.77602592,14.0628993 C9.77602592,15.6092966 11.0296286,16.8628993 12.5760259,16.8628993 C14.1224232,16.8628993 15.3760259,15.6092966 15.3760259,14.0628993 C15.3760259,12.516502 14.1224232,11.2628993 12.5760259,11.2628993 L12.5760259,11.2068993 Z M12.5760259,1.40689931 C13.3492246,1.40689931 13.9760259,2.03370066 13.9760259,2.80689931 C13.9760259,3.58009796 13.3492246,4.20689931 12.5760259,4.20689931 C11.8028273,4.20689931 11.1760259,3.58009796 11.1760259,2.80689931 C11.1760259,2.03370066 11.8028273,1.40689931 12.5760259,1.40689931 Z M2.77602592,9.80689931 C2.00282727,9.80689931 1.37602592,9.18009796 1.37602592,8.40689931 C1.37602592,7.63370066 2.00282727,7.00689931 2.77602592,7.00689931 C3.54922457,7.00689931 4.17602592,7.63370066 4.17602592,8.40689931 C4.17602592,9.18009796 3.54922457,9.80689931 2.77602592,9.80689931 Z M12.5760259,15.4068993 C11.8028273,15.4068993 11.1760259,14.780098 11.1760259,14.0068993 C11.1760259,13.2337007 11.8028273,12.6068993 12.5760259,12.6068993 C13.3492246,12.6068993 13.9760259,13.2337007 13.9760259,14.0068993 C13.9760259,14.780098 13.3492246,15.4068993 12.5760259,15.4068993 Z" id="path-1"></path>
    </defs>
    <g stroke="none" stroke-width="1" fill="none" fill-rule="evenodd">
        <g transform="translate(-698.000000, -105.000000)">
            <g transform="translate(0.000000, 99.000000)">
                <g transform="translate(691.000000, 0.000000)">
                    <g transform="translate(7.000000, 6.000000)">
                        <g>
                            <rect fill-opacity="0.01" fill="#FFFFFF" x="0" y="0" width="28" height="28"></rect>
                            <g transform="translate(7.000000, 5.600000)">
                                <mask id="mask-2" fill="white">
                                    <use xlink:href="#path-1"></use>
                                </mask>
                                <use fill="#000000" fill-rule="nonzero" xlink:href="#path-1"></use>
                                <g mask="url(#mask-2)" fill="#FFFFFF">
                                    <g transform="translate(-7.000000, -5.600000)">
                                        <rect x="0" y="0" width="28" height="28"></rect>
                                    </g>
                                </g>
                            </g>
                        </g>
                    </g>
                </g>
            </g>
        </g>
    </g>
</svg>