<?xml version="1.0" encoding="UTF-8"?>
<svg width="19px" height="19px" viewBox="0 0 19 19" version="1.1" xmlns="http://www.w3.org/2000/svg" xmlns:xlink="http://www.w3.org/1999/xlink">
    <!-- Generator: Sketch 52.5 (67469) - http://www.bohemiancoding.com/sketch -->
    <title>verb_attached_media</title>
    <desc>Created with Sketch.</desc>
    <g stroke="none" stroke-width="1" fill="none" fill-rule="evenodd">
        <g transform="translate(-1323.000000, -730.000000)">
            <g transform="translate(1323.000000, 730.000000)">
                <path d="M19,16.8888889 L19,2.11111111 C19,0.95 18.05,0 16.8888889,0 L2.11111111,0 C0.95,0 0,0.95 0,2.11111111 L0,16.8888889 C0,18.05 0.95,19 2.11111111,19 L16.8888889,19 C18.05,19 19,18.05 19,16.8888889 Z" fill="#00B894"></path>
                <path d="M5.27777778,12.4555556 L8.33888889,16.15 L12.5611111,10.5555556 L17.5222222,17.3111111 C17.6277778,17.5222222 17.6277778,17.7333333 17.4166667,17.9444444 C17.3111111,17.9444444 17.2055556,17.9444444 17.1,17.9444444 L1.9,17.9444444 C1.68888889,17.9444444 1.47777778,17.7333333 1.47777778,17.5222222 C1.47777778,17.4166667 1.47777778,17.3111111 1.58333333,17.3111111 L5.27777778,12.4555556 Z" fill="#FFFFFF"></path>
                <g transform="translate(10.555556, 2.111111)" fill="#FFFFFF" stroke="#FFFFFF" stroke-width="0.5">
                    <polygon points="4.22222222 0 4.22222222 0.527777778 5.38333333 0.527777778 2.63888889 3.37777778 3.06111111 3.69444444 5.80555556 0.844444444 5.80555556 2.11111111 6.33333333 2.11111111 6.33333333 0"></polygon>
                    <path d="M5.80555556,5.80555556 L0.633333333,5.80555556 L0.633333333,0.527777778 L2.95555556,0.527777778 L2.95555556,0 L0.633333333,0 C0.211111111,0 0,0.211111111 0,0.527777778 L0,5.7 C0,6.12222222 0.211111111,6.33333333 0.527777778,6.33333333 L5.7,6.33333333 C6.12222222,6.33333333 6.33333333,6.12222222 6.33333333,5.80555556 L6.33333333,3.48333333 L5.80555556,3.48333333 L5.80555556,5.80555556 Z"></path>
                </g>
            </g>
        </g>
    </g>
</svg>